<svg xmlns="http://www.w3.org/2000/svg" viewBox="0 0 140 40">
        <defs>
          <clipPath id="squareClip">
            <rect x="0" y="0" width="40" height="40" rx="0" />
          </clipPath>
        </defs>
        <g clip-path="url(#squareClip)">
          <rect x="0" y="0" width="40" height="40" fill="#7757FF" />
          <g transform="translate(20 20)">
            <g transform="scale(0.08)">
              <g transform="translate(-128 -128)">
                <path d="M211.84,134.81l-59.79,60.47,0,0a15.75,15.75,0,0,1-11.2,4.68H75.32L45.66,229.66a8,8,0,0,1-11.32-11.32l22.59-22.58h0L124.7,128H209A4,4,0,0,1,211.84,134.81ZM216.7,30.57a64,64,0,0,0-85.9,4.14l-9.6,9.48A4,4,0,0,0,120,47v63l55-55a8,8,0,0,1,11.31,11.31L140.71,112h88.38a4,4,0,0,0,3.56-2.16A64.08,64.08,0,0,0,216.7,30.57ZM62.83,167.23,104,126.06V70.76a4,4,0,0,0-6.81-2.84L60.69,104A15.9,15.9,0,0,0,56,115.31V164.4A4,4,0,0,0,62.83,167.23Z" fill="#FFFFFF"></path>
              </g>
            </g>
          </g>
        </g>
        <path fill="#FFFFFF" d="M49.34 29L46.61 29L46.61 12.20L49.82 12.20L54.96 23.31L60 12.20L63.24 12.20L63.24 29L60.50 29L60.50 17.07L55.99 26.77L53.86 26.77L49.34 17.07L49.34 29ZM69.48 29.29L69.48 29.29Q67.99 29.29 66.92 28.66Q65.86 28.04 65.28 26.88Q64.70 25.71 64.70 24.13L64.70 24.13L64.70 17.10L67.42 17.10L67.42 23.74Q67.42 25.23 68.12 26.11Q68.83 26.98 70.22 26.98L70.22 26.98Q71.64 26.98 72.43 26.07Q73.22 25.16 73.22 23.55L73.22 23.55L73.22 17.10L75.94 17.10L75.94 29L73.30 29L73.25 27.37Q72.65 28.28 71.64 28.78Q70.63 29.29 69.48 29.29ZM79.99 29L77.28 29L77.28 17.10L79.92 17.10L79.97 18.73Q80.57 17.79 81.62 17.30Q82.68 16.81 83.83 16.81L83.83 16.81Q85.92 16.81 87.22 18.13Q88.51 19.45 88.51 22.02L88.51 22.02L88.51 29L85.82 29L85.82 22.35Q85.82 20.84 85.10 19.98Q84.38 19.11 82.99 19.11L82.99 19.11Q81.60 19.11 80.80 20.04Q79.99 20.96 79.99 22.54L79.99 22.54L79.99 29ZM92.38 29L89.66 29L89.66 17.10L92.30 17.10L92.35 18.73Q92.95 17.79 94.01 17.30Q95.06 16.81 96.22 16.81L96.22 16.81Q98.30 16.81 99.60 18.13Q100.90 19.45 100.90 22.02L100.90 22.02L100.90 29L98.21 29L98.21 22.35Q98.21 20.84 97.49 19.98Q96.77 19.11 95.38 19.11L95.38 19.11Q93.98 19.11 93.18 20.04Q92.38 20.96 92.38 22.54L92.38 22.54L92.38 29ZM103.56 15.20L103.56 15.20Q102.82 15.20 102.29 14.67Q101.76 14.14 101.76 13.40L101.76 13.40Q101.76 12.66 102.29 12.14Q102.82 11.62 103.56 11.62L103.56 11.62Q104.30 11.62 104.83 12.14Q105.36 12.66 105.36 13.40L105.36 13.40Q105.36 14.14 104.83 14.67Q104.30 15.20 103.56 15.20ZM104.93 29L102.19 29L102.19 17.10L104.93 17.10L104.93 29ZM109.10 29L106.39 29L106.39 17.10L109.03 17.10L109.08 18.73Q109.68 17.79 110.74 17.30Q111.79 16.81 112.94 16.81L112.94 16.81Q115.03 16.81 116.33 18.13Q117.62 19.45 117.62 22.02L117.62 22.02L117.62 29L114.94 29L114.94 22.35Q114.94 20.84 114.22 19.98Q113.50 19.11 112.10 19.11L112.10 19.11Q110.71 19.11 109.91 20.04Q109.10 20.96 109.10 22.54L109.10 22.54L109.10 29Z"/>
      </svg>